<?xml version="1.0" encoding="UTF-8" standalone="no"?>
<!DOCTYPE svg PUBLIC "-//W3C//DTD SVG 1.1//EN" "http://www.w3.org/Graphics/SVG/1.1/DTD/svg11.dtd">
<svg width="100%" height="100%" viewBox="0 0 501 62" version="1.1" xmlns="http://www.w3.org/2000/svg" xmlns:xlink="http://www.w3.org/1999/xlink" xml:space="preserve" xmlns:serif="http://www.serif.com/" style="fill-rule:evenodd;clip-rule:evenodd;stroke-linejoin:round;stroke-miterlimit:2;">
    <g transform="matrix(1,0,0,1,0,-313.738)">
        <g>
            <path d="M0.056,374.924L0.536,326.329C0.536,326.329 10.958,321.382 34.962,323.55C58.966,325.718 96.861,329.439 115.614,329.129C134.366,328.819 171.48,328.202 189.842,327.892C208.204,327.582 255.751,330.975 278.978,328.91C302.205,326.845 344.425,330.15 354.05,330.562C363.675,330.975 380.344,326.846 402.744,326.433C425.144,326.02 456.399,327.672 460.046,328.085C463.692,328.498 500.542,328.212 500.542,328.212L500.542,374.923L0.056,374.923L0.056,374.924Z" style="fill:rgb(86,65,46);fill-rule:nonzero;"/>
            <path d="M459.582,338.704C459.582,338.704 460.259,373.296 460.926,373.416C461.593,373.536 462.41,371.237 462.91,368.352C463.41,365.467 463.902,360.292 464.235,356.566C464.568,352.84 465.731,347.669 467.064,351.154C468.397,354.639 467.895,355.118 468.729,358.964C469.562,362.81 467.895,369.856 467.895,371.538C467.895,373.22 468.961,374.836 468.961,374.836L474.354,374.836C474.354,374.836 473.061,372.916 472.728,369.791C472.395,366.666 475.561,361.913 475.728,359.87C475.895,357.827 477.061,355.33 476.395,352.085C475.728,348.84 473.562,344.287 473.395,346.33C473.228,348.373 473.062,352.947 471.978,350.543C470.895,348.139 470.561,344.746 471.228,344.101C471.895,343.456 473.254,341.306 473.254,341.306C473.254,341.306 466.061,338.877 465.227,338.704C464.394,338.53 459.582,338.704 459.582,338.704Z" style="fill:rgb(139,108,80);fill-rule:nonzero;"/>
            <path d="M479.567,341.571C479.567,341.571 479.073,344.78 479.567,346.943C480.061,349.106 480.061,348.505 480.394,353.553C480.727,358.601 481.061,359.803 480.394,361.846C479.727,363.889 479.33,367.615 480.779,369.057C482.227,370.499 483.894,367.014 484.061,363.048C484.228,359.082 485.228,360.291 484.728,355.48C484.228,350.669 485.895,345.47 486.061,344.103C486.228,342.737 486.061,340.093 486.061,340.093L479.567,341.571Z" style="fill:rgb(139,108,80);fill-rule:nonzero;"/>
            <path d="M449.987,332.195C449.987,332.195 450.311,340.302 451.061,344.103C451.811,347.905 449.811,357.279 451.061,362.146C452.311,367.013 451.235,374.923 451.235,374.923L438.895,375.051C438.895,375.051 443.978,361.266 438.895,356.839C433.812,352.412 420.728,340.333 417.395,338.17C414.062,336.007 409.062,332.099 411.812,328.554C414.562,325.01 419.062,323.748 423.562,324.829C428.062,325.911 440.562,329.516 442.062,329.877C443.56,330.238 449.987,332.195 449.987,332.195Z" style="fill:rgb(63,47,35);fill-rule:nonzero;"/>
            <path d="M357.393,331.68C357.393,332.281 358.226,335.886 358.06,339.612C357.893,343.338 358.56,342.496 359.727,342.737C360.894,342.977 362.227,345.621 362.227,350.429C362.227,355.236 363.06,363.048 363.56,360.885C364.06,358.722 365.56,349.828 365.56,345.982C365.56,342.136 367.227,334.565 367.227,333.363C367.226,332.161 357.393,331.68 357.393,331.68Z" style="fill:rgb(63,47,35);fill-rule:nonzero;"/>
            <path d="M294.981,334.009L295.29,339.196C295.29,339.196 295.809,338.84 292.726,339.196C289.643,339.552 282.143,339.973 280.809,338.651C279.476,337.329 275.392,333.363 276.476,331.68C277.559,329.998 283.226,329.216 283.226,329.216L294.981,334.009Z" style="fill:rgb(63,47,35);fill-rule:nonzero;"/>
            <path d="M228.028,328.986L229.725,374.836L225.351,374.836C225.351,374.836 226.19,339.054 226.457,338.611C226.725,338.168 224.143,336.019 225.351,331.933C226.558,327.847 228.028,328.986 228.028,328.986Z" style="fill:rgb(63,47,35);fill-rule:nonzero;"/>
            <path d="M158.391,338.891C159.786,338.408 165.183,338.35 167.683,337.359C170.183,336.368 175.058,332.942 171.058,331.049C167.058,329.156 158.85,327.628 151.891,328.527C144.933,329.426 134.808,330.778 133.433,331.77C132.058,332.762 127.433,335.556 129.433,336.457C131.433,337.358 137.808,339.612 138.308,339.702C138.808,339.792 144.058,340.093 144.058,340.093C144.058,340.093 145.308,340.784 145.433,345.832C145.558,350.88 144.433,356.108 145.933,355.477C147.433,354.846 149.433,349.979 149.683,351.331C149.933,352.683 149.308,355.928 149.433,359.804C149.558,363.68 150.334,367.466 150.759,368.007C151.183,368.548 154.6,368.458 154.642,363.951C154.684,359.444 154.1,357.731 154.642,354.036C155.184,350.34 157.309,349.529 156.934,346.374C156.557,343.218 158.391,338.891 158.391,338.891Z" style="fill:rgb(63,47,35);fill-rule:nonzero;"/>
            <path d="M31.193,333.276C31.193,333.276 29.5,337.481 31.25,341.567C33,345.653 36.862,340.229 36.529,343.234C36.196,346.239 35.21,348.033 35.21,352.6C35.21,357.167 35.433,366.778 37.621,361.97C39.808,357.163 41.073,352.351 41.073,356.317L41.073,374.835L44.351,374.835C44.351,374.835 46.392,366.184 46.558,361.016C46.725,355.848 47.391,350.013 47.391,346.528C47.391,343.043 49.391,338.382 48.224,337.421C47.057,336.46 40.323,332.868 39.523,332.567C38.723,332.268 31.193,333.276 31.193,333.276Z" style="fill:rgb(63,47,35);fill-rule:nonzero;"/>
            <path d="M375.289,335.349C375.289,337.693 374.924,353.164 375.174,352.624C375.424,352.084 377.367,344.856 378.617,347.56C379.867,350.264 377.588,354.583 378.588,359.45C379.588,364.317 378.324,368.82 381.074,366.477C383.824,364.133 384.067,361.023 385.317,364.268C386.567,367.513 385.31,374.836 385.31,374.836L399.353,374.836C399.353,374.836 398.227,369.611 397.643,364.202C397.06,358.794 393.893,347.851 393.726,347.671C393.559,347.491 394.559,360.137 390.059,355.991C385.559,351.845 388.059,343.205 390.059,343.205C392.059,343.205 398.559,342.14 400.809,346.462C403.059,350.784 396.809,359.981 400.809,359.981C404.809,359.981 408.559,352.772 409.309,356.557C410.059,360.343 408.559,364.49 409.309,366.473C410.059,368.456 411.809,372.422 412.559,372.783C413.309,373.144 412.559,375.052 412.559,375.052L422.809,374.924C422.809,374.924 422.559,371.521 420.809,366.654C419.059,361.787 419.309,358.17 419.059,355.201C418.809,352.232 415.559,348.276 412.809,346.468C410.059,344.66 410.809,339.315 409.559,339.554C408.31,339.793 375.289,335.349 375.289,335.349Z" style="fill:rgb(139,108,80);fill-rule:nonzero;"/>
            <path d="M315.539,333.727C315.547,336.122 316.507,342.529 317.841,341.808C319.174,341.087 318.534,337.826 320.45,343.054C322.367,348.282 320.255,352.601 320.421,354.403C320.588,356.206 318.573,349.712 315.323,351.334C312.073,352.956 309.566,356.336 311.066,359.941C312.566,363.546 310.613,374.835 310.613,374.835L347.352,374.835C347.352,374.835 348.226,365.103 346.893,363.661C345.56,362.219 343.31,367.32 338.81,368.582C334.31,369.844 330.31,367.347 331.06,364.643C331.81,361.939 333.31,352.758 335.06,353.299C336.81,353.84 336.06,362.159 338.31,361.248C340.56,360.337 341.81,354.932 340.56,351.687C339.31,348.442 339.81,346.429 339.81,344.101C339.81,341.773 339.06,340.151 336.06,341.233C333.06,342.315 333.06,335.765 333.56,333.362C334.059,330.959 315.539,333.727 315.539,333.727Z" style="fill:rgb(139,108,80);fill-rule:nonzero;"/>
            <path d="M295.219,340.12C295.219,340.12 296.257,343.44 296.257,346.5C296.257,349.56 296.06,355.313 295.297,356.935C294.533,358.557 295.824,362.155 295.31,363.777C294.796,365.399 293.553,371.525 293.553,371.525C293.553,371.525 292.973,370.802 291.89,366.475C290.807,362.149 287.808,357.436 287.558,361.212C287.308,364.988 289.059,374.836 289.059,374.836C289.059,374.836 280.352,375.667 280.352,374.836C280.352,373.174 280.645,370.151 280.352,364.923C280.059,359.695 281.059,353.705 282.559,353.662C284.059,353.619 283.559,348.911 281.059,348.935C278.559,348.959 277.031,351.221 276.295,353.703C275.559,356.184 274.809,360.878 274.809,362.14C274.809,363.402 270.142,363.605 270.726,361.252C271.309,358.899 270.393,357.999 268.726,360.342C267.059,362.686 268.143,368.275 268.726,368.275C269.309,368.275 271.643,370.078 271.976,371.52C272.309,372.962 268.726,374.923 268.726,374.923C268.726,374.923 264.309,375.847 263.809,372.602C263.309,369.357 263.309,365.231 263.809,361.255C264.309,357.279 262.559,351.871 263.434,349.708C264.309,347.545 261.311,343.579 263.185,342.858C265.059,342.137 266.643,341.416 271.976,341.055C277.309,340.694 281.559,339.135 283.809,339.554C286.059,339.973 295.219,340.12 295.219,340.12Z" style="fill:rgb(139,108,80);fill-rule:nonzero;"/>
            <path d="M226.725,338.23L226.222,374.836C226.222,374.631 214.886,374.887 209.639,374.836C207.744,374.817 208.558,372.426 209.308,366.27C210.058,360.114 209.053,353.606 208.305,354.31C207.558,355.013 206.558,360.29 206.058,363.632C205.558,366.974 204.389,374.837 204.389,374.837C204.389,374.837 191.308,374.845 191.058,373.987C190.808,373.13 187.225,370.667 188.891,364.863C190.558,359.059 191.558,353.079 191.058,350.792C190.558,348.505 188.141,348.581 186.725,351.621C185.308,354.661 183.058,357.764 182.058,356.916C181.058,356.068 180.225,350.967 178.641,350.088C177.058,349.208 176.891,351.143 176.224,355.716C175.557,360.289 175.557,366.269 174.307,366.445C173.057,366.621 169.307,366.269 170.057,359.058C170.807,351.847 171.86,344.957 169.959,343.917C168.057,342.877 165.807,337.073 168.807,336.897C171.807,336.721 179.057,336.468 181.057,339.409C183.057,342.35 181.057,349.209 183.307,346.747C185.557,344.285 186.724,337.058 188.89,336.802C191.057,336.546 195.723,343.053 196.39,345.34C197.057,347.627 196.013,353.782 197.035,352.903C198.057,352.024 199.307,346.395 200.057,341.822C200.807,337.249 203.807,335.636 206.557,336.794C209.308,337.952 226.725,338.23 226.725,338.23Z" style="fill:rgb(139,108,80);fill-rule:nonzero;"/>
            <path d="M144.276,340.221C144.276,340.221 145.588,342.861 145.542,345.896C145.496,348.931 145.124,350.699 145.202,353.465C145.279,356.23 144.461,357.656 144.773,359.219C145.085,360.781 146.738,357.649 147.071,358.009C147.404,358.37 147.018,365.817 147.018,365.817L147.113,372.062L147.113,375.051L140.106,374.923C140.106,374.923 140.332,373.864 140.165,369.417C139.998,364.97 138.861,365.451 138.528,362.086C138.195,358.721 138.376,358.668 138.543,356.051C138.71,353.433 138.332,348.386 138.358,347.304C138.384,346.222 137.387,343.819 136.554,346.102C135.721,348.386 135.223,356.051 135.223,356.051L136.557,366.053C136.557,366.053 137.558,371.297 137.391,371.658C137.224,372.019 135.891,374.836 135.891,374.836L124.35,374.836C124.35,374.836 124.391,373.312 124.057,368.126C123.723,362.94 125.89,357.293 125.807,355.997C125.724,354.701 126.39,350.762 125.807,349.44C125.224,348.118 121.724,348.011 120.89,346.809C120.057,345.607 118.557,343.451 118.557,343.451C118.557,343.451 118.057,343.695 118.557,349.343C119.057,354.992 117.89,362.445 116.807,360.281C115.724,358.118 115.724,353.863 115.724,348.96C115.724,344.057 113.724,340.347 115.724,340.219C117.724,340.091 124.057,339.01 125.807,339.01C127.557,339.011 144.276,340.221 144.276,340.221Z" style="fill:rgb(139,108,80);fill-rule:nonzero;"/>
            <path d="M61.39,336.247C61.39,336.247 61.223,341.295 61.39,341.775C61.557,342.256 63.973,340.093 64.432,342.496C64.89,344.9 64.307,344.9 64.432,347.784C64.557,350.668 61.703,353.793 62.964,354.634C64.224,355.475 65.391,352.711 65.891,356.317C66.391,359.922 65.891,363.288 65.891,363.288C65.891,363.288 68.224,364.49 67.808,366.413C67.391,368.336 68.089,374.924 68.089,374.924L45.806,374.924C45.806,374.924 45.889,374.947 47.889,373.144C49.889,371.341 53.014,365.693 52.118,364.491C51.222,363.289 52.305,357.16 50.68,359.564C49.055,361.968 48.786,359.564 48.587,357.761C48.388,355.958 49.638,349.179 50.68,348.963C51.722,348.747 52.388,352.352 53.555,351.151C54.722,349.949 57.105,345.262 56.83,345.863C56.555,346.464 54.722,344.541 53.555,343.099C52.388,341.657 51.013,339.013 52.118,338.292C53.223,337.569 61.39,336.247 61.39,336.247Z" style="fill:rgb(139,108,80);fill-rule:nonzero;"/>
            <path d="M0,338.295L0,374.924L11.116,374.836C11.116,374.836 12.851,374.117 12.597,368.95C12.343,363.782 14.672,361.432 15.201,362.754C15.73,364.076 16.323,368.67 17.805,363.502C19.287,358.334 16.153,356.184 17.805,351.978C19.457,347.772 19.965,350.182 22.167,350.543C24.369,350.904 26.063,348.263 25.047,345.619C24.031,342.975 22.675,339.611 20.812,342.256C18.949,344.9 18.102,341.656 18.949,340.574C19.796,339.492 22.676,338.396 24.031,338.403C25.386,338.411 25.991,334.505 25.35,334.475C24.709,334.445 9.125,337.035 8.617,337.035C8.108,337.034 0,338.295 0,338.295Z" style="fill:rgb(139,108,80);fill-rule:nonzero;"/>
            <path d="M75.057,374.836C75.057,374.836 74.39,373.616 76.057,368.19C77.724,362.764 77.14,362.065 79.182,363.747C81.224,365.43 84.39,347.739 84.39,348.237C84.39,348.735 83.723,362.802 86.057,359.918C88.39,357.034 90.724,345.138 91.557,345.859C92.39,346.58 93.307,356.061 95.432,355.648C97.557,355.235 98.89,350.548 99.557,351.87C100.224,353.192 102.89,357.585 105.057,360.376C107.224,363.167 111.39,366.172 111.39,366.172C111.39,366.172 107.39,368.412 108.057,370.214C108.724,372.017 111.39,374.835 111.39,374.835L75.057,374.835L75.057,374.836Z" style="fill:rgb(139,108,80);fill-rule:nonzero;"/>
            <path d="M235.058,374.836C235.058,374.836 236.391,371.778 237.391,366.009C238.391,360.24 236.391,350.768 239.224,353.772C242.057,356.777 240.391,363.999 242.391,360.273C244.391,356.547 245.058,350.544 245.891,351.385C246.724,352.226 246.558,355.181 247.724,356.048C248.891,356.916 250.224,361.124 251.391,361.364C252.558,361.604 253.224,360.858 254.224,363.072C255.224,365.286 255.891,374.835 255.891,374.835L235.058,374.835L235.058,374.836Z" style="fill:rgb(139,108,80);fill-rule:nonzero;"/>
            <g>
                <path d="M0,338.377L0,314.534C0,314.534 19.921,312.781 37.432,314.479C54.942,316.177 62.02,318.34 72.026,318.34C82.032,318.34 95.076,315.456 105.082,315.456C115.088,315.456 134.618,316.898 149.127,317.619C163.636,318.34 187.659,319.061 198.165,319.061C208.671,319.061 228.688,315.456 244.697,317.979C260.706,320.502 287.991,317.979 295.612,317.979C303.233,317.979 314.345,317.258 325.8,319.421C337.255,321.584 350.93,321.104 350.93,321.104C350.93,321.104 363.604,318.941 366.94,318.941C370.275,318.941 393.623,318.941 405.63,319.422C417.637,319.903 456.847,318.941 463.518,319.903C470.189,320.864 500.541,319.403 500.541,319.403L500.541,338.276C500.541,338.276 490.962,342.017 478.288,341.536C465.614,341.055 456.628,339.901 460.63,337.017C464.632,334.133 464.954,327.136 460.301,328.086C455.648,329.036 458.322,333.363 444.314,331.921C430.306,330.479 416.301,327.594 416.301,329.998C416.301,332.402 426.309,335.286 434.981,337.209C443.653,339.132 449.657,341.14 438.984,341.578C428.311,342.016 417.638,342.582 400.295,341.578C382.951,340.574 375.614,340.093 370.277,338.17C364.941,336.247 360.938,334.324 358.27,334.324C355.602,334.324 356.269,336.247 344.262,336.247C332.255,336.247 312.577,336.007 307.907,336.007C303.237,336.007 286.894,331.921 283.559,332.402C280.224,332.883 280.891,334.806 291.564,337.69C302.237,340.574 290.23,341.299 281.558,342.139C272.886,342.978 264.214,346.107 253.541,342.139C242.868,338.171 232.862,334.806 232.862,334.806L228.349,328.964C228.349,328.964 226.858,334.945 226.858,338.269C226.858,340.762 199.468,338.269 199.468,338.269L158.484,338.889C158.484,338.889 172.491,334.306 166.488,332.986C160.485,331.666 140.01,331.3 134.674,333.826C129.338,336.352 142.141,340.094 144.143,340.094C146.144,340.094 121.463,342.017 116.793,341.536C112.124,341.055 116.126,343.94 88.776,340.094L61.426,336.248C61.426,336.248 59.758,338.529 53.088,339.613C46.417,340.697 35.931,331.921 29.261,334.806C22.59,337.689 0,338.377 0,338.377Z" style="fill:rgb(196,164,138);fill-rule:nonzero;"/>
                <ellipse cx="17.942" cy="334.474" rx="2.001" ry="0.451" style="fill:rgb(170,141,119);"/>
                <path d="M45.833,331.815C45.833,332.238 45.189,332.581 44.395,332.581C43.601,332.581 42.957,332.238 42.957,331.815C42.957,331.392 43.601,331.049 44.395,331.049C45.189,331.049 45.833,331.392 45.833,331.815Z" style="fill:rgb(170,141,119);fill-rule:nonzero;"/>
                <path d="M53.588,336.187C53.588,336.287 52.944,336.367 52.15,336.367C51.356,336.367 50.712,336.286 50.712,336.187C50.712,336.088 51.356,336.007 52.15,336.007C52.944,336.007 53.588,336.087 53.588,336.187Z" style="fill:rgb(170,141,119);fill-rule:nonzero;"/>
                <path d="M64.469,331.815C64.469,332.238 63.265,332.581 61.78,332.581C60.295,332.581 59.091,332.238 59.091,331.815C59.091,331.392 60.295,331.049 61.78,331.049C63.265,331.049 64.469,331.392 64.469,331.815Z" style="fill:rgb(170,141,119);fill-rule:nonzero;"/>
                <path d="M17.942,322.383C17.942,322.724 16.794,323.001 15.378,323.001C13.962,323.001 12.814,322.724 12.814,322.383C12.814,322.042 13.962,321.765 15.378,321.765C16.794,321.765 17.942,322.042 17.942,322.383Z" style="fill:rgb(170,141,119);fill-rule:nonzero;"/>
                <path d="M39.204,321.359C39.204,321.583 38.616,321.765 37.891,321.765C37.166,321.765 36.578,321.583 36.578,321.359C36.578,321.135 37.166,320.953 37.891,320.953C38.616,320.953 39.204,321.135 39.204,321.359Z" style="fill:rgb(170,141,119);fill-rule:nonzero;"/>
                <path d="M34.076,326.001C34.076,326.3 33.46,326.542 32.7,326.542C31.94,326.542 31.324,326.3 31.324,326.001C31.324,325.702 31.94,325.46 32.7,325.46C33.46,325.461 34.076,325.703 34.076,326.001Z" style="fill:rgb(170,141,119);fill-rule:nonzero;"/>
                <path d="M61.78,321.923C61.78,322.234 60.814,322.486 59.622,322.486C58.43,322.486 57.464,322.234 57.464,321.923C57.464,321.612 58.43,321.36 59.622,321.36C60.814,321.359 61.78,321.612 61.78,321.923Z" style="fill:rgb(170,141,119);fill-rule:nonzero;"/>
                <path d="M79.228,334.159C79.228,334.682 78.304,335.105 77.164,335.105C76.024,335.105 75.1,334.681 75.1,334.159C75.1,333.637 76.024,333.212 77.164,333.212C78.304,333.212 79.228,333.636 79.228,334.159Z" style="fill:rgb(170,141,119);fill-rule:nonzero;"/>
                <path d="M81.354,326.001C81.354,326.3 80.416,326.542 79.259,326.542C78.102,326.542 77.164,326.3 77.164,326.001C77.164,325.702 78.102,325.46 79.259,325.46C80.416,325.461 81.354,325.703 81.354,326.001Z" style="fill:rgb(170,141,119);fill-rule:nonzero;"/>
                <path d="M71.348,326.407C71.348,326.631 70.564,326.813 69.597,326.813C68.63,326.813 67.846,326.631 67.846,326.407C67.846,326.183 68.63,326.001 69.597,326.001C70.564,326.001 71.348,326.183 71.348,326.407Z" style="fill:rgb(170,141,119);fill-rule:nonzero;"/>
                <path d="M91.235,320.368C91.235,320.692 90.087,320.954 88.671,320.954C87.255,320.954 86.107,320.692 86.107,320.368C86.107,320.045 87.255,319.782 88.671,319.782C90.087,319.782 91.235,320.044 91.235,320.368Z" style="fill:rgb(170,141,119);fill-rule:nonzero;"/>
                <path d="M95.488,330.937C95.488,331.422 94.368,331.816 92.987,331.816C91.605,331.816 90.485,331.423 90.485,330.937C90.485,330.452 91.605,330.058 92.987,330.058C94.368,330.058 95.488,330.451 95.488,330.937Z" style="fill:rgb(170,141,119);fill-rule:nonzero;"/>
                <path d="M116.875,335.736C116.875,336.134 115.419,336.457 113.623,336.457C111.827,336.457 110.371,336.134 110.371,335.736C110.371,335.338 111.827,335.015 113.623,335.015C115.419,335.015 116.875,335.338 116.875,335.736Z" style="fill:rgb(170,141,119);fill-rule:nonzero;"/>
                <ellipse cx="124.13" cy="326.001" rx="1.876" ry="0.721" style="fill:rgb(170,141,119);"/>
                <path d="M128.758,319.692C128.758,320.09 127.47,320.413 125.881,320.413C124.292,320.413 123.004,320.09 123.004,319.692C123.004,319.294 124.292,318.971 125.881,318.971C127.47,318.971 128.758,319.294 128.758,319.692Z" style="fill:rgb(170,141,119);fill-rule:nonzero;"/>
                <path d="M112.623,321.314C112.623,321.563 111.447,321.765 109.996,321.765C108.545,321.765 107.369,321.563 107.369,321.314C107.369,321.065 108.545,320.863 109.996,320.863C111.447,320.864 112.623,321.065 112.623,321.314Z" style="fill:rgb(170,141,119);fill-rule:nonzero;"/>
                <path d="M157.483,326.633C157.483,326.832 156.251,326.994 154.731,326.994C153.211,326.994 151.979,326.833 151.979,326.633C151.979,326.434 153.211,326.272 154.731,326.272C156.251,326.272 157.483,326.433 157.483,326.633Z" style="fill:rgb(170,141,119);fill-rule:nonzero;"/>
                <ellipse cx="157.024" cy="321.585" rx="2.293" ry="0.481" style="fill:rgb(170,141,119);"/>
                <path d="M178.746,328.465C178.746,328.946 178.205,329.336 177.537,329.336C176.869,329.336 176.328,328.946 176.328,328.465C176.328,327.984 176.869,327.594 177.537,327.594C178.204,327.594 178.746,327.984 178.746,328.465Z" style="fill:rgb(170,141,119);fill-rule:nonzero;"/>
                <path d="M191.17,324.77C191.17,325.135 190.199,325.431 189.002,325.431C187.805,325.431 186.834,325.135 186.834,324.77C186.834,324.405 187.805,324.109 189.002,324.109C190.199,324.109 191.17,324.405 191.17,324.77Z" style="fill:rgb(170,141,119);fill-rule:nonzero;"/>
                <path d="M196.506,331.921C196.506,332.386 194.826,332.762 192.754,332.762C190.682,332.762 189.002,332.385 189.002,331.921C189.002,331.456 190.682,331.08 192.754,331.08C194.826,331.079 196.506,331.456 196.506,331.921Z" style="fill:rgb(170,141,119);fill-rule:nonzero;"/>
                <path d="M218.019,326.933C218.019,327.298 216.75,327.594 215.184,327.594C213.618,327.594 212.349,327.298 212.349,326.933C212.349,326.568 213.618,326.272 215.184,326.272C216.75,326.272 218.019,326.568 218.019,326.933Z" style="fill:rgb(170,141,119);fill-rule:nonzero;"/>
                <path d="M225.023,320.864C225.023,320.997 224.538,321.104 223.939,321.104C223.34,321.104 222.855,320.996 222.855,320.864C222.855,320.731 223.34,320.624 223.939,320.624C224.538,320.623 225.023,320.731 225.023,320.864Z" style="fill:rgb(170,141,119);fill-rule:nonzero;"/>
                <path d="M219.02,335.105C219.02,335.47 217.937,335.766 216.602,335.766C215.267,335.766 214.184,335.47 214.184,335.105C214.184,334.74 215.267,334.444 216.602,334.444C217.937,334.444 219.02,334.74 219.02,335.105Z" style="fill:rgb(170,141,119);fill-rule:nonzero;"/>
                <path d="M249.704,333.663C249.704,334.094 248.883,334.444 247.87,334.444C246.857,334.444 246.035,334.094 246.035,333.663C246.035,333.232 246.856,332.882 247.87,332.882C248.883,332.882 249.704,333.232 249.704,333.663Z" style="fill:rgb(170,141,119);fill-rule:nonzero;"/>
                <path d="M251.539,326.933C251.539,327.298 250.456,327.594 249.121,327.594C247.785,327.594 246.703,327.298 246.703,326.933C246.703,326.568 247.786,326.272 249.121,326.272C250.456,326.272 251.539,326.568 251.539,326.933Z" style="fill:rgb(170,141,119);fill-rule:nonzero;"/>
                <path d="M270.884,334.384C270.884,334.782 269.988,335.105 268.883,335.105C267.778,335.105 266.882,334.782 266.882,334.384C266.882,333.986 267.778,333.663 268.883,333.663C269.988,333.663 270.884,333.986 270.884,334.384Z" style="fill:rgb(170,141,119);fill-rule:nonzero;"/>
                <ellipse cx="272.134" cy="322.714" rx="1.251" ry="0.287" style="fill:rgb(170,141,119);"/>
                <path d="M310.074,332.522C310.074,332.987 308.992,333.363 307.656,333.363C306.32,333.363 305.238,332.986 305.238,332.522C305.238,332.057 306.321,331.681 307.656,331.681C308.991,331.681 310.074,332.057 310.074,332.522Z" style="fill:rgb(170,141,119);fill-rule:nonzero;"/>
                <path d="M320.58,322.533C320.58,322.791 319.983,323.001 319.246,323.001C318.509,323.001 317.912,322.792 317.912,322.533C317.912,322.275 318.509,322.065 319.246,322.065C319.983,322.065 320.58,322.275 320.58,322.533Z" style="fill:rgb(170,141,119);fill-rule:nonzero;"/>
                <path d="M349.264,331.019C349.264,331.384 348.293,331.68 347.096,331.68C345.899,331.68 344.928,331.384 344.928,331.019C344.928,330.654 345.899,330.358 347.096,330.358C348.293,330.358 349.264,330.654 349.264,331.019Z" style="fill:rgb(170,141,119);fill-rule:nonzero;"/>
                <path d="M362.438,325.371C362.438,325.67 361.878,325.912 361.187,325.912C360.496,325.912 359.936,325.67 359.936,325.371C359.936,325.072 360.496,324.83 361.187,324.83C361.878,324.83 362.438,325.072 362.438,325.371Z" style="fill:rgb(170,141,119);fill-rule:nonzero;"/>
                <ellipse cx="292.063" cy="323.314" rx="1.668" ry="0.313" style="fill:rgb(170,141,119);"/>
                <path d="M419.306,337.449C419.306,337.847 418.559,338.17 417.638,338.17C416.717,338.17 415.97,337.847 415.97,337.449C415.97,337.051 416.717,336.728 417.638,336.728C418.559,336.728 419.306,337.051 419.306,337.449Z" style="fill:rgb(170,141,119);fill-rule:nonzero;"/>
                <path d="M393.957,334.685C393.957,335.017 393.136,335.286 392.123,335.286C391.11,335.286 390.288,335.017 390.288,334.685C390.288,334.353 391.109,334.084 392.123,334.084C393.136,334.084 393.957,334.353 393.957,334.685Z" style="fill:rgb(170,141,119);fill-rule:nonzero;"/>
                <path d="M399.127,323.254C399.127,323.394 398.567,323.507 397.876,323.507C397.185,323.507 396.625,323.394 396.625,323.254C396.625,323.114 397.185,323.001 397.876,323.001C398.567,323.001 399.127,323.114 399.127,323.254Z" style="fill:rgb(170,141,119);fill-rule:nonzero;"/>
                <path d="M439.151,323.982C439.151,324.384 438.143,324.71 436.9,324.71C435.657,324.71 434.649,324.384 434.649,323.982C434.649,323.58 435.657,323.254 436.9,323.254C438.143,323.254 439.151,323.58 439.151,323.982Z" style="fill:rgb(170,141,119);fill-rule:nonzero;"/>
                <path d="M449.157,328.554C449.157,328.752 448.448,328.913 447.573,328.913C446.698,328.913 445.989,328.752 445.989,328.554C445.989,328.355 446.698,328.194 447.573,328.194C448.447,328.195 449.157,328.356 449.157,328.554Z" style="fill:rgb(170,141,119);fill-rule:nonzero;"/>
                <path d="M474.505,323.618C474.505,323.819 473.497,323.982 472.254,323.982C471.011,323.982 470.003,323.819 470.003,323.618C470.003,323.417 471.011,323.254 472.254,323.254C473.497,323.254 474.505,323.417 474.505,323.618Z" style="fill:rgb(170,141,119);fill-rule:nonzero;"/>
                <path d="M472.254,336.788C472.254,337.219 471.526,337.569 470.628,337.569C469.73,337.569 469.002,337.219 469.002,336.788C469.002,336.357 469.73,336.007 470.628,336.007C471.526,336.007 472.254,336.357 472.254,336.788Z" style="fill:rgb(170,141,119);fill-rule:nonzero;"/>
                <path d="M480.675,332.221C480.675,332.52 479.63,332.762 478.34,332.762C477.051,332.762 476.005,332.52 476.005,332.221C476.005,331.922 477.05,331.68 478.34,331.68C479.63,331.68 480.675,331.922 480.675,332.221Z" style="fill:rgb(170,141,119);fill-rule:nonzero;"/>
            </g>
        </g>
    </g>
</svg>
