<?xml version="1.0" encoding="UTF-8" standalone="no"?>
<!DOCTYPE svg PUBLIC "-//W3C//DTD SVG 1.1//EN" "http://www.w3.org/Graphics/SVG/1.1/DTD/svg11.dtd">
<svg viewBox="0 0 1898 2372" version="1.1" xmlns="http://www.w3.org/2000/svg" xmlns:xlink="http://www.w3.org/1999/xlink" xml:space="preserve" xmlns:serif="http://www.serif.com/" style="fill-rule:evenodd;clip-rule:evenodd;stroke-linejoin:round;stroke-miterlimit:2;">
    <g id="flame">
        <path d="M1101.27,1786.22L986.211,1786.22L974.649,1861.2L922.716,1861.2L911.154,1786.22L795.794,1786.22C773.428,1879.95 749.722,2097.8 948.086,2297.94C948.086,2297.94 1175.41,2107.77 1101.27,1786.22Z" style="fill:rgb(234,227,37);fill-rule:nonzero;"/>
        <path d="M1060.85,1786.22L837.459,1786.22C831.434,1862.3 845.303,1975.41 948.085,2079.09C948.085,2079.09 1074.84,1968.76 1060.85,1786.22Z" style="fill:rgb(218,128,46);fill-rule:nonzero;"/>
    </g>
    <path d="M1101.25,1786.22L1103.78,1786.22L1152.81,1699.03L1145.09,1699.03L1145.87,1697.52C1147.81,1693.82 1149.75,1690.08 1151.69,1686.3C1153.03,1683.67 1154.38,1681.06 1155.71,1678.39C1157.71,1674.44 1159.69,1670.43 1161.66,1666.4C1162.92,1663.84 1164.17,1661.31 1165.42,1658.72C1167.59,1654.22 1169.75,1649.65 1171.9,1645.07C1172.93,1642.86 1173.97,1640.69 1175,1638.47C1178.14,1631.68 1181.26,1624.81 1184.35,1617.83L1184.43,1617.65C1203.05,1575.6 1220.67,1530.17 1236.6,1482.16L1420.69,1591.21L1454.15,1828.7L1522.69,1861.2L1516.12,1449.61L1303.28,1188.52C1308.3,1148.02 1311.71,1106.85 1313.11,1065.24C1321.71,809.63 1252.56,570.567 1171.34,391.235L1171.33,391.219C1157.94,361.649 1144.23,333.7 1130.47,307.572L1130.46,307.555C1128.54,303.914 1126.63,300.335 1124.71,296.765C1124.11,295.646 1123.51,294.513 1122.9,293.402C1121.12,290.098 1119.34,286.846 1117.55,283.608C1116.82,282.281 1116.09,280.952 1115.37,279.637C1113.62,276.497 1111.88,273.391 1110.14,270.311C1109.39,268.987 1108.64,267.669 1107.9,266.356C1106.16,263.295 1104.41,260.258 1102.68,257.262C1101.98,256.048 1101.28,254.852 1100.57,253.651C1098.77,250.56 1096.97,247.485 1095.17,244.461C1094.66,243.614 1094.16,242.786 1093.66,241.942C1085.05,227.542 1076.53,213.946 1068.18,201.2C1067.69,200.448 1067.2,199.683 1066.71,198.939C1065,196.346 1063.31,193.816 1061.62,191.297C1060.91,190.248 1060.2,189.191 1059.5,188.154C1057.9,185.784 1056.31,183.461 1054.72,181.16C1053.95,180.043 1053.18,178.932 1052.41,177.832C1050.87,175.615 1049.34,173.426 1047.81,171.273C1047.02,170.168 1046.24,169.081 1045.46,167.994C1043.95,165.883 1042.44,163.789 1040.95,161.746C1040.2,160.717 1039.46,159.719 1038.71,158.707C1037.19,156.653 1035.68,154.6 1034.18,152.614C1033.61,151.849 1033.04,151.121 1032.47,150.367C1027.38,143.661 1022.41,137.37 1017.58,131.49C1016.79,130.521 1015.99,129.529 1015.2,128.584C1014,127.14 1012.82,125.757 1011.63,124.368C1010.73,123.305 1009.83,122.238 1008.93,121.208C1007.82,119.917 1006.72,118.673 1005.62,117.433C1004.69,116.382 1003.76,115.341 1002.85,114.326C1001.8,113.166 1000.76,112.032 999.734,110.918C998.789,109.897 997.855,108.903 996.923,107.919C995.948,106.89 994.979,105.868 994.023,104.882C993.056,103.888 992.108,102.938 991.16,101.987C990.269,101.097 989.373,100.19 988.499,99.337C987.461,98.324 986.451,97.379 985.438,96.426C984.689,95.72 983.924,94.98 983.188,94.304C981.502,92.759 979.849,91.292 978.237,89.914C977.722,89.476 977.237,89.097 976.731,88.675C975.592,87.727 974.459,86.787 973.362,85.927C972.736,85.437 972.136,85.003 971.523,84.54C970.888,84.061 970.237,83.549 969.617,83.102L969.623,83.096L969.541,83.044L968.741,82.488C968.117,82.05 967.515,81.649 966.908,81.244C966.05,80.669 965.203,80.116 964.378,79.607C963.79,79.245 963.212,78.905 962.638,78.575C961.835,78.112 961.05,77.684 960.28,77.289C959.741,77.011 959.204,76.739 958.681,76.494L958.104,76.206L957.936,76.124C957.418,75.893 956.936,75.735 956.435,75.538L955.035,74.999C954.523,74.824 954.035,74.694 953.543,74.558L952.587,74.31L951.699,74.09C950.645,73.894 949.632,73.774 948.687,73.774C947.742,73.774 946.731,73.894 945.674,74.09L944.585,74.368C943.853,74.545 943.117,74.736 942.338,75L940.938,75.539C940.203,75.828 939.461,76.136 938.691,76.495C938.168,76.74 937.631,77.013 937.092,77.29C936.322,77.685 935.537,78.113 934.734,78.576C934.162,78.906 933.584,79.246 932.994,79.608C932.171,80.117 931.325,80.671 930.469,81.245C929.859,81.651 929.255,82.051 928.628,82.492C927.726,83.13 926.795,83.827 925.861,84.53C925.242,84.996 924.638,85.437 924.006,85.93C922.914,86.788 921.784,87.725 920.651,88.668C920.142,89.092 919.651,89.474 919.134,89.915C917.524,91.293 915.869,92.761 914.183,94.305C913.442,94.986 912.671,95.732 911.915,96.443C910.91,97.391 909.91,98.328 908.881,99.33C908.001,100.191 907.097,101.103 906.199,102.005C905.256,102.947 904.314,103.893 903.353,104.884C902.397,105.867 901.425,106.891 900.45,107.921C899.521,108.904 898.587,109.898 897.639,110.92C896.609,112.034 895.572,113.17 894.523,114.33C893.61,115.341 892.69,116.373 891.767,117.419C890.661,118.669 889.553,119.924 888.425,121.224C887.547,122.237 886.659,123.288 885.772,124.331C884.573,125.739 883.381,127.136 882.163,128.599C881.4,129.514 880.624,130.475 879.856,131.41C875.003,137.32 870.011,143.644 864.89,150.385C864.321,151.134 863.763,151.856 863.193,152.613C861.687,154.609 860.164,156.671 858.639,158.739C857.904,159.736 857.171,160.719 856.433,161.732C854.933,163.786 853.418,165.888 851.901,168.004C851.125,169.088 850.349,170.169 849.57,171.27C848.037,173.433 846.495,175.625 844.945,177.85C844.188,178.942 843.426,180.043 842.663,181.149C841.072,183.455 839.476,185.781 837.869,188.157C837.166,189.194 836.461,190.251 835.756,191.3C834.064,193.822 832.37,196.352 830.663,198.945C830.181,199.675 829.696,200.427 829.217,201.162C820.858,213.922 812.336,227.532 803.716,241.945C803.212,242.789 802.711,243.617 802.207,244.464C800.404,247.498 798.596,250.581 796.785,253.684C796.093,254.866 795.404,256.045 794.712,257.238C792.963,260.256 791.212,263.308 789.458,266.389C788.72,267.685 787.981,268.987 787.244,270.295C785.501,273.384 783.758,276.491 782.012,279.64C781.282,280.955 780.552,282.284 779.822,283.611C778.038,286.849 776.254,290.101 774.471,293.405C773.869,294.516 773.267,295.649 772.665,296.768C770.748,300.338 768.83,303.92 766.913,307.561L766.905,307.575C755.763,328.737 744.648,351.103 733.707,374.548L733.68,374.611C731.123,380.091 728.576,385.626 726.04,391.223L726.032,391.239C644.809,570.571 575.666,809.634 584.267,1065.25C585.669,1106.86 589.077,1148.03 594.094,1188.52L381.25,1449.61L374.678,1861.2L443.212,1828.7L476.671,1591.22L660.764,1482.16C687.605,1563.04 719.288,1636.44 752.295,1699.03L744.555,1699.03L793.591,1786.22L795.794,1786.22M795.794,1786.22C794.138,1780.13 1093.42,1750.79 1101.25,1786.22" style="fill:rgb(226,243,254);fill-rule:nonzero;"/>
    <path d="M1516.12,1449.61L1303.32,1188.57C1294.3,1261.39 1279.89,1331.96 1261.8,1398.66C1254.05,1427.25 1245.61,1455.14 1236.64,1482.18L1420.7,1591.22L1454.15,1828.7L1522.69,1861.2L1516.12,1449.61Z" style="fill:rgb(211,71,52);fill-rule:nonzero;"/>
    <path d="M635.565,1398.66C617.472,1331.96 603.067,1261.39 594.041,1188.57L381.25,1449.61L374.678,1861.2L443.212,1828.7L476.671,1591.22L660.728,1482.18C651.752,1455.14 643.319,1427.25 635.565,1398.66Z" style="fill:rgb(211,71,52);fill-rule:nonzero;"/>
    <path d="M1130.47,307.572C1068.63,190.128 1006.1,109.423 969.619,83.099L969.608,83.088L968.971,82.633L968.72,82.456L968.086,82.012L967.898,81.884L966.504,80.939L966.496,80.933L965.913,80.552L965.619,80.361L965.071,80.01L964.774,79.825C964.169,79.446 963.573,79.084 962.985,78.741L962.664,78.556L962.182,78.281L962.149,78.262L961.863,78.101L961.798,78.063L961.376,77.832L960.905,77.579L960.66,77.448L960.219,77.219L959.848,77.031L959.437,76.827L959.036,76.634L958.641,76.446L958.529,76.395L958.101,76.199L957.943,76.128L957.619,75.986L957.594,75.975L957.177,75.795L956.834,75.654L956.529,75.531L956.393,75.479L956.085,75.356L955.598,75.176L955.394,75.1L955.151,75.016L954.672,74.855L954.375,74.76L954.372,74.76L953.901,74.616L953.678,74.551L953.544,74.513L953.133,74.401L953,74.369L952.812,74.323L952.325,74.209L952.066,74.154L951.868,74.11L951.829,74.102L951.6,74.061L951.409,74.026L951.137,73.982L950.949,73.952L950.767,73.925L950.761,73.925L950.671,73.914L950.24,73.863L950.232,73.86L950.118,73.852L949.93,73.833L949.527,73.803L949.462,73.8L949.293,73.792L948.683,73.775L947.961,73.797L947.724,73.814L947.218,73.855L946.935,73.888L946.453,73.95L946.134,73.999L945.679,74.08L945.333,74.145L944.851,74.252L944.527,74.328L944.018,74.461L943.683,74.554L943.04,74.748L942.847,74.805L941.994,75.094L941.632,75.23L941.106,75.426L940.694,75.589L940.204,75.791L939.76,75.981L939.289,76.188L938.812,76.406L938.352,76.624L937.853,76.866L937.423,77.081L936.878,77.359L936.497,77.561C935.756,77.956 935.002,78.378 934.228,78.833L933.975,78.983L933.275,79.405L932.957,79.599L932.252,80.043L931.917,80.255L931.192,80.726L930.909,80.911L930.092,81.456L929.928,81.57C893.794,106.173 829.986,187.753 766.897,307.572L1130.47,307.572Z" style="fill:rgb(211,71,52);fill-rule:nonzero;"/>
    <path d="M1163.67,374.544C1096.03,360.387 1023.41,352.973 948.683,352.973C893.078,352.973 838.639,357.081 786.551,365.017C777.645,366.371 768.809,367.839 760.05,369.419L759.878,369.449C757.759,369.831 755.643,370.22 753.532,370.615L753.282,370.661C751.286,371.037 749.295,371.418 747.304,371.805L746.696,371.919C744.817,372.287 742.943,372.66 741.069,373.036L740.165,373.216C738.005,373.652 735.851,374.096 733.7,374.545C731.131,380.052 728.571,385.611 726.025,391.235C728.174,390.761 730.328,390.295 732.488,389.835L732.54,389.824C734.689,389.366 736.843,388.917 739.003,388.473L739.085,388.457C743.413,387.566 747.76,386.706 752.128,385.872L752.264,385.847C756.627,385.014 761.01,384.21 765.411,383.434L765.55,383.412C769.968,382.633 774.404,381.884 778.86,381.162L778.909,381.154C833.245,372.365 890.304,367.808 948.684,367.808C1026.34,367.808 1101.66,375.867 1171.34,391.234C1168.8,385.611 1166.23,380.052 1163.67,374.544Z" style="fill:rgb(211,71,52);fill-rule:nonzero;"/>
    <g transform="matrix(0.7071,-0.7071,0.7071,0.7071,-249.537,889.277)">
        <ellipse cx="948.683" cy="745.857" rx="208.06" ry="208.061" style="fill:white;"/>
    </g>
    <path d="M998.725,910.266L999.172,910.127C999.749,909.95 1000.33,909.77 1000.9,909.588L1001.14,909.512C1002.52,909.071 1003.88,908.613 1005.24,908.139L1005.33,908.109C1005.99,907.877 1006.65,907.645 1007.3,907.409L1007.39,907.373C1073.37,883.383 1120.5,820.126 1120.5,745.856C1120.5,650.966 1043.58,574.041 948.682,574.041C873.658,574.041 809.871,622.126 786.446,689.159L786.424,689.222C785.95,690.584 785.49,691.951 785.048,693.329L784.972,693.569C784.792,694.132 784.615,694.696 784.441,695.263L784.283,695.783L783.833,697.284L783.684,697.79C783.493,698.449 783.305,699.108 783.12,699.77L783.055,700.004C782.701,701.289 782.361,702.58 782.034,703.877L781.925,704.318L781.633,705.508L781.527,705.949C781.371,706.608 781.219,707.27 781.069,707.931L780.906,708.661L780.694,709.636L780.503,710.532L780.239,711.823L780.01,712.975L779.841,713.866L779.661,714.844L779.509,715.683C779.408,716.244 779.313,716.805 779.217,717.366L779.114,718L778.915,719.264L778.812,719.925C778.722,720.519 778.635,721.115 778.55,721.709L778.487,722.177L778.286,723.675L778.218,724.206C778.139,724.83 778.063,725.456 777.992,726.082L777.978,726.216C777.907,726.834 777.839,727.452 777.777,728.073L777.731,728.522C777.674,729.113 777.617,729.704 777.562,730.295L777.543,730.502C777.486,731.161 777.431,731.823 777.38,732.485L777.353,732.861C777.309,733.438 777.269,734.018 777.233,734.596L777.211,734.917C777.167,735.587 777.129,736.257 777.097,736.927L777.084,737.196C777.054,737.787 777.029,738.378 777.005,738.972L776.989,739.361C776.965,740.036 776.943,740.712 776.927,741.39L776.924,741.51C776.908,742.136 776.897,742.766 776.888,743.394L776.88,743.838C776.874,744.508 776.869,745.178 776.869,745.851C776.869,760.528 778.71,774.775 782.175,788.377L782.42,789.333C782.858,791.008 783.319,792.675 783.807,794.331L784.166,795.538C785.048,798.463 786.007,801.358 787.04,804.218C787.364,805.112 787.691,806.007 788.028,806.895C789.897,811.809 791.986,816.61 794.279,821.295C794.584,821.916 794.892,822.534 795.202,823.15C795.507,823.755 795.815,824.356 796.126,824.958C796.787,826.23 797.466,827.497 798.16,828.752C798.454,829.286 798.751,829.82 799.054,830.351C799.443,831.043 799.841,831.732 800.242,832.418L801.105,833.878C801.536,834.6 801.974,835.316 802.412,836.03C803.401,837.629 804.411,839.205 805.446,840.769C805.963,841.545 806.483,842.316 807.012,843.084C811.433,849.512 816.275,855.624 821.505,861.376C822.891,862.904 824.305,864.405 825.745,865.878C826.698,866.856 827.665,867.823 828.643,868.776C830.615,870.702 832.633,872.581 834.695,874.411C835.21,874.869 835.725,875.321 836.244,875.77C837.285,876.671 838.333,877.559 839.395,878.433C839.923,878.871 840.457,879.305 840.994,879.738C842.064,880.599 843.146,881.451 844.238,882.287C844.785,882.706 845.332,883.12 845.886,883.535C846.986,884.357 848.1,885.169 849.222,885.97C849.783,886.368 850.347,886.765 850.913,887.158C852.047,887.942 853.19,888.716 854.342,889.473C855.494,890.23 856.657,890.977 857.828,891.706C858.999,892.439 860.179,893.155 861.368,893.86C862.558,894.563 863.76,895.252 864.966,895.927C866.78,896.941 868.613,897.924 870.465,898.872C871.699,899.504 872.943,900.122 874.194,900.727C877.95,902.535 881.782,904.213 885.684,905.752C887.634,906.52 889.604,907.255 891.586,907.955C893.572,908.652 895.574,909.317 897.592,909.943C898.937,910.362 900.288,910.766 901.647,911.15C902.325,911.343 903.009,911.531 903.69,911.716C904.919,912.049 906.155,912.367 907.394,912.672C908.222,912.876 909.05,913.075 909.881,913.268C910.575,913.429 911.27,913.584 911.964,913.734C913.356,914.039 914.753,914.325 916.159,914.595C926.691,916.611 937.564,917.667 948.684,917.667C949.337,917.667 949.991,917.661 950.645,917.656L951.198,917.648C951.77,917.64 952.339,917.629 952.909,917.615L953.184,917.61C953.835,917.593 954.483,917.571 955.131,917.547L955.637,917.528C956.174,917.506 956.71,917.482 957.25,917.457L957.651,917.438C958.294,917.405 958.936,917.367 959.579,917.326L960.031,917.296C960.557,917.263 961.082,917.225 961.608,917.187L962.098,917.149C962.733,917.1 963.367,917.051 963.999,916.994L964.361,916.961C964.892,916.913 965.42,916.861 965.952,916.809L966.518,916.752C967.069,916.695 967.619,916.638 968.169,916.575L968.632,916.52C969.183,916.457 969.73,916.392 970.28,916.321L970.928,916.239L972.257,916.062L972.864,915.978C973.436,915.899 974.005,915.814 974.577,915.728L975.302,915.616L976.501,915.426L977.209,915.309C977.748,915.221 978.285,915.129 978.822,915.033L979.786,914.856L980.609,914.704L981.609,914.516L982.437,914.35C983.001,914.238 983.565,914.124 984.129,914.007L984.851,913.854L985.932,913.617L986.469,913.497C987.245,913.323 988.021,913.143 988.795,912.958L988.989,912.912L990.285,912.596L990.566,912.525C991.919,912.188 993.267,911.831 994.61,911.46L994.7,911.433C1040.46,898.739 1078.53,867.581 1100.41,826.487C1076.36,839.3 1048.92,846.583 1019.77,846.583L998.725,910.266Z" style="fill:rgb(53,110,181);fill-rule:nonzero;"/>
    <path d="M1472.74,1811L1439.28,1557.29L1261.8,1398.66C1254.05,1427.25 1245.61,1455.13 1236.64,1482.18L1420.7,1591.21L1454.15,1828.7L1522.69,1861.2L1472.74,1811Z" style="fill:rgb(170,51,36);fill-rule:nonzero;"/>
    <path d="M458.083,1557.29L424.623,1811L374.678,1861.2L443.212,1828.7L476.671,1591.21L660.728,1482.18C651.751,1455.13 643.319,1427.25 635.565,1398.66L458.083,1557.29Z" style="fill:rgb(170,51,36);fill-rule:nonzero;"/>
    <path d="M1164.7,605.717C1179.35,662.473 1193.04,719.546 1202.7,777.387C1222.36,895.1 1229.76,1014.99 1222.93,1134.18C1218.55,1212.46 1208.35,1290.82 1196.65,1370.72C1197.95,1361.85 1206.37,1350.56 1210.1,1342.26C1214.66,1332.06 1219.01,1321.78 1223.14,1311.4C1231.13,1291.36 1238.31,1270.98 1244.69,1250.36C1285.91,1117.01 1293.13,974.22 1271.8,836.597C1250.06,696.374 1199.49,557.522 1118.05,440.797C1131.48,466.116 1134.87,492.096 1142.06,519.498C1149.6,548.242 1157.28,576.945 1164.7,605.717Z" style="fill:rgb(247,252,255);fill-rule:nonzero;"/>
    <path d="M1012.5,1615.71L999.654,1699.03L1145.11,1699.03L1145.88,1697.57L1146.29,1696.79C1146.93,1695.56 1147.58,1694.33 1148.22,1693.09L1148.64,1692.28C1149.29,1691.03 1149.94,1689.77 1150.59,1688.51L1150.96,1687.8C1151.64,1686.47 1152.32,1685.15 1152.99,1683.82L1153.15,1683.51C1153.84,1682.17 1154.52,1680.82 1155.21,1679.46L1155.38,1679.12C1156.03,1677.82 1156.68,1676.52 1157.34,1675.21L1157.79,1674.31C1158.42,1673.04 1159.06,1671.77 1159.69,1670.49L1160.09,1669.69C1160.73,1668.38 1161.37,1667.08 1162.02,1665.76L1162.4,1664.97C1163.03,1663.69 1163.66,1662.41 1164.28,1661.12L1164.59,1660.48C1165.21,1659.21 1165.82,1657.94 1166.43,1656.66L1166.79,1655.92C1167.42,1654.61 1168.05,1653.28 1168.68,1651.96L1169.12,1651.04C1169.75,1649.7 1170.39,1648.36 1171.02,1647.02L1171.38,1646.26C1172.03,1644.88 1172.68,1643.49 1173.32,1642.1L1173.6,1641.5C1174.2,1640.22 1174.79,1638.94 1175.38,1637.65L1175.71,1636.94C1176.35,1635.57 1176.98,1634.2 1177.61,1632.82L1177.99,1631.98C1178.61,1630.63 1179.22,1629.28 1179.83,1627.93L1180.31,1626.86C1180.91,1625.53 1181.52,1624.18 1182.12,1622.84L1182.51,1621.97C1183.11,1620.61 1183.72,1619.25 1184.33,1617.88L1184.43,1617.65L1012.5,1615.71Z" style="fill:rgb(197,221,241);fill-rule:nonzero;"/>
    <path d="M884.338,1612.3L840.502,1611.02C745.067,1461.98 650.524,1211.25 648.696,944.624C647.252,734.265 705.951,537.658 778.908,381.155L778.859,381.163C774.403,381.885 769.966,382.634 765.549,383.413L765.41,383.435C761.009,384.211 756.626,385.015 752.263,385.848L752.127,385.873C747.758,386.706 743.412,387.567 739.084,388.458L739.002,388.474C736.842,388.918 734.688,389.367 732.539,389.825L732.487,389.836C730.335,390.294 728.186,390.76 726.046,391.233C644.815,570.565 575.658,809.611 584.259,1065.24C585.661,1106.87 589.02,1148.07 594.042,1188.57C603.068,1261.39 617.472,1331.96 635.566,1398.67C643.32,1427.26 651.753,1455.14 660.729,1482.18C687.562,1563.05 719.259,1636.45 752.258,1699.03L897.711,1699.03L884.338,1612.3Z" style="fill:rgb(197,221,241);fill-rule:nonzero;"/>
    <path d="M733.699,374.544C735.85,374.095 738.005,373.651 740.164,373.215L741.068,373.035C742.942,372.659 744.816,372.286 746.695,371.918L747.303,371.804C749.294,371.417 751.285,371.036 753.281,370.66L753.531,370.614C755.642,370.219 757.758,369.83 759.877,369.448L760.049,369.418C768.808,367.838 777.643,366.37 786.55,365.016C797.444,342.353 808.613,320.584 819.914,299.791L819.887,299.794C817.724,300.053 815.567,300.32 813.416,300.592L812.964,300.649C810.82,300.921 808.68,301.199 806.544,301.485L806.446,301.496C802.004,302.09 797.58,302.708 793.179,303.353L793.07,303.369C791.095,303.661 789.124,303.958 787.155,304.257C786.629,304.339 786.104,304.42 785.575,304.502C784.025,304.741 782.475,304.984 780.931,305.232C780.346,305.325 779.76,305.417 779.177,305.513C777.676,305.756 776.178,306 774.68,306.249C774.1,306.347 773.52,306.442 772.943,306.537C770.925,306.878 768.91,307.218 766.902,307.57C755.605,329.026 744.334,351.711 733.244,375.515L733.252,375.515L733.699,374.544Z" style="fill:rgb(197,221,241);fill-rule:nonzero;"/>
    <path d="M911.154,1786.22L897.711,1699.03L744.555,1699.03L793.591,1786.22L911.154,1786.22Z" style="fill:rgb(96,94,111);fill-rule:nonzero;"/>
    <path d="M999.654,1699.03L986.211,1786.22L1103.78,1786.22L1152.81,1699.03L999.654,1699.03Z" style="fill:rgb(96,94,111);fill-rule:nonzero;"/>
    <path d="M766.897,307.572C768.907,307.223 770.922,306.88 772.943,306.539C773.52,306.444 774.1,306.348 774.68,306.251C776.178,306.003 777.676,305.758 779.177,305.515C779.763,305.42 780.346,305.327 780.931,305.234C782.475,304.986 784.025,304.744 785.575,304.504C786.103,304.422 786.629,304.341 787.155,304.259C789.124,303.96 791.096,303.663 793.07,303.371L793.179,303.355C797.58,302.71 802.004,302.092 806.446,301.498L806.544,301.487C808.679,301.201 810.82,300.923 812.964,300.651L813.416,300.594C815.567,300.322 817.724,300.055 819.887,299.796L819.914,299.793C871.872,204.177 926.539,129.207 969.619,83.099L969.608,83.088L968.971,82.633L968.72,82.456L968.086,82.012L967.898,81.884L966.504,80.939L966.496,80.933L965.913,80.552L965.619,80.361L965.071,80.01L964.774,79.825C964.169,79.446 963.573,79.084 962.985,78.741L962.664,78.556L962.182,78.281L962.149,78.262L961.863,78.101L961.798,78.063L961.376,77.832L960.905,77.579L960.66,77.448L960.219,77.219L959.848,77.031L959.437,76.827L959.036,76.634L958.641,76.446L958.529,76.395L958.101,76.199L957.943,76.128L957.619,75.986L957.594,75.975L957.177,75.795L956.834,75.654L956.529,75.531L956.393,75.479L956.085,75.356L955.598,75.176L955.394,75.1L955.151,75.016L954.672,74.855L954.375,74.76L954.372,74.76L953.901,74.616L953.678,74.551L953.544,74.513L953.133,74.401L953,74.369L952.812,74.323L952.325,74.209L952.066,74.154L951.868,74.11L951.829,74.102L951.6,74.061L951.409,74.026L951.137,73.982L950.949,73.952L950.767,73.925L950.761,73.925L950.671,73.914L950.24,73.863L950.232,73.86L950.118,73.852L949.93,73.833L949.527,73.803L949.462,73.8L949.293,73.792L948.683,73.775L947.961,73.797L947.724,73.814L947.218,73.855L946.935,73.888L946.453,73.95L946.134,73.999L945.679,74.08L945.333,74.145L944.851,74.252L944.527,74.328L944.018,74.461L943.683,74.554L943.04,74.748L942.847,74.805L941.994,75.094L941.632,75.23L941.106,75.426L940.694,75.589L940.204,75.791L939.76,75.981L939.289,76.188L938.812,76.406L938.352,76.624L937.853,76.866L937.423,77.081L936.878,77.359L936.497,77.561C935.756,77.956 935.002,78.378 934.228,78.833L933.975,78.983L933.275,79.405L932.957,79.599L932.252,80.043L931.917,80.255L931.192,80.726L930.909,80.911L930.092,81.456L929.928,81.57C893.794,106.173 829.986,187.753 766.897,307.572Z" style="fill:rgb(170,51,36);fill-rule:nonzero;"/>
    <path d="M778.907,381.155C781.44,375.727 783.987,370.348 786.55,365.018C777.647,366.375 768.811,367.84 760.049,369.42L759.877,369.45C757.758,369.832 755.642,370.221 753.531,370.616L753.281,370.662C751.285,371.038 749.294,371.419 747.303,371.806L746.695,371.92C744.816,372.288 742.942,372.661 741.068,373.037L740.164,373.217C738.004,373.653 735.85,374.097 733.699,374.546C731.13,380.053 728.57,385.612 726.024,391.236C728.173,390.762 730.327,390.296 732.487,389.836L732.539,389.825C734.688,389.367 736.842,388.918 739.002,388.474L739.084,388.458C743.412,387.567 747.759,386.707 752.127,385.873L752.263,385.848C756.626,385.015 761.009,384.211 765.41,383.435L765.549,383.413C769.967,382.634 774.403,381.885 778.859,381.163L778.907,381.155Z" style="fill:rgb(170,51,36);fill-rule:nonzero;"/>
    <path d="M948.683,567.775C954.539,567.775 959.286,563.028 959.286,557.172C959.286,551.316 954.539,546.569 948.683,546.569C942.827,546.569 938.08,551.316 938.08,557.172C938.08,563.028 942.826,567.775 948.683,567.775Z" style="fill:rgb(197,221,241);fill-rule:nonzero;"/>
    <path d="M948.683,923.938C942.827,923.938 938.08,928.685 938.08,934.541C938.08,940.397 942.827,945.144 948.683,945.144C954.539,945.144 959.286,940.397 959.286,934.541C959.286,928.685 954.538,923.938 948.683,923.938Z" style="fill:rgb(197,221,241);fill-rule:nonzero;"/>
    <circle cx="1137.37" cy="745.857" r="10.603" style="fill:rgb(197,221,241);"/>
    <path d="M759.998,735.254C754.142,735.254 749.395,740.001 749.395,745.857C749.395,751.713 754.142,756.46 759.998,756.46C765.854,756.46 770.601,751.713 770.601,745.857C770.601,740.001 765.853,735.254 759.998,735.254Z" style="fill:rgb(197,221,241);fill-rule:nonzero;"/>
    <path d="M1089.6,619.934C1093.74,615.791 1093.74,609.08 1089.6,604.938C1085.46,600.798 1078.75,600.798 1074.61,604.938C1070.47,609.081 1070.47,615.792 1074.61,619.934C1078.75,624.074 1085.46,624.074 1089.6,619.934Z" style="fill:rgb(197,221,241);fill-rule:nonzero;"/>
    <path d="M807.767,871.779C803.624,875.921 803.624,882.633 807.767,886.775C811.907,890.915 818.62,890.915 822.76,886.775C826.899,882.633 826.899,875.922 822.76,871.779C818.62,867.639 811.907,867.639 807.767,871.779Z" style="fill:rgb(197,221,241);fill-rule:nonzero;"/>
    <path d="M1074.61,871.779C1070.46,875.921 1070.46,882.633 1074.61,886.775C1078.75,890.915 1085.46,890.915 1089.6,886.775C1093.74,882.633 1093.74,875.922 1089.6,871.779C1085.46,867.639 1078.75,867.639 1074.61,871.779Z" style="fill:rgb(197,221,241);fill-rule:nonzero;"/>
    <path d="M822.76,619.934C826.899,615.791 826.899,609.08 822.76,604.938C818.62,600.798 811.906,600.798 807.767,604.938C803.624,609.081 803.624,615.792 807.767,619.934C811.907,624.074 818.62,624.074 822.76,619.934Z" style="fill:rgb(197,221,241);fill-rule:nonzero;"/>
    <path d="M1019.77,846.583C924.881,846.583 847.956,769.661 847.956,674.768C847.956,645.621 855.239,618.18 868.045,594.131C826.979,616.004 795.829,654.047 783.121,699.771L783.056,700.005C782.702,701.29 782.362,702.581 782.035,703.878L781.926,704.319L781.634,705.509L781.528,705.95C781.372,706.609 781.22,707.271 781.07,707.932L780.907,708.662L780.695,709.637L780.504,710.533L780.24,711.824L780.011,712.976L779.842,713.867L779.662,714.845L779.51,715.684C779.409,716.245 779.314,716.806 779.218,717.367L779.115,718.001L778.916,719.265L778.813,719.926C778.723,720.52 778.636,721.116 778.551,721.71L778.488,722.178L778.287,723.676L778.219,724.207C778.14,724.831 778.064,725.457 777.993,726.083L777.979,726.217C777.908,726.835 777.84,727.453 777.778,728.074L777.732,728.523C777.675,729.114 777.618,729.705 777.563,730.296L777.544,730.503C777.487,731.162 777.432,731.824 777.381,732.486L777.354,732.862C777.31,733.439 777.27,734.019 777.234,734.597L777.212,734.918C777.168,735.588 777.13,736.258 777.098,736.928L777.085,737.197C777.055,737.788 777.03,738.379 777.006,738.973L776.99,739.362C776.966,740.037 776.944,740.713 776.928,741.391L776.925,741.511C776.909,742.137 776.898,742.767 776.889,743.395L776.881,743.839C776.875,744.509 776.87,745.179 776.87,745.852C776.87,760.529 778.711,774.776 782.176,788.378L782.421,789.334C782.859,791.009 783.32,792.676 783.808,794.332L784.167,795.539C785.049,798.464 786.008,801.359 787.041,804.219C787.365,805.113 787.692,806.008 788.029,806.896C789.898,811.81 791.987,816.611 794.28,821.296C794.585,821.917 794.893,822.535 795.203,823.151C795.508,823.756 795.816,824.357 796.127,824.959C796.788,826.231 797.467,827.498 798.161,828.753C798.455,829.287 798.752,829.821 799.055,830.352C799.444,831.044 799.842,831.733 800.243,832.419L801.106,833.879C801.537,834.601 801.975,835.317 802.413,836.031C803.402,837.63 804.412,839.206 805.447,840.77C805.964,841.546 806.484,842.317 807.013,843.085C811.434,849.513 816.276,855.625 821.506,861.377C822.892,862.905 824.306,864.406 825.746,865.879C826.699,866.857 827.666,867.824 828.644,868.777C830.616,870.703 832.634,872.582 834.696,874.412C835.211,874.87 835.726,875.322 836.245,875.771C837.286,876.672 838.334,877.56 839.396,878.434C839.924,878.872 840.458,879.306 840.995,879.739C842.065,880.6 843.147,881.452 844.239,882.288C844.786,882.707 845.333,883.121 845.887,883.536C846.987,884.358 848.101,885.17 849.223,885.971C849.784,886.369 850.348,886.766 850.914,887.159C852.048,887.943 853.191,888.717 854.343,889.474C855.495,890.231 856.658,890.978 857.829,891.707C859,892.44 860.18,893.156 861.369,893.861C862.559,894.564 863.761,895.253 864.967,895.928C866.781,896.942 868.614,897.925 870.466,898.873C871.7,899.505 872.944,900.123 874.195,900.728C877.951,902.536 881.783,904.214 885.685,905.753C887.635,906.521 889.605,907.256 891.587,907.956C893.573,908.653 895.575,909.318 897.593,909.944C898.938,910.363 900.289,910.767 901.648,911.151C902.326,911.344 903.01,911.532 903.691,911.717C904.92,912.05 906.156,912.368 907.395,912.673C908.223,912.877 909.051,913.076 909.882,913.269C910.576,913.43 911.271,913.585 911.965,913.735C913.357,914.04 914.754,914.326 916.16,914.596C926.692,916.612 937.565,917.668 948.685,917.668C949.338,917.668 949.992,917.662 950.646,917.657L951.199,917.649C951.771,917.641 952.34,917.63 952.91,917.616L953.185,917.611C953.836,917.594 954.484,917.572 955.132,917.548L955.638,917.529C956.175,917.507 956.711,917.483 957.251,917.458L957.652,917.439C958.295,917.406 958.937,917.368 959.58,917.327L960.032,917.297C960.558,917.264 961.083,917.226 961.609,917.188L962.099,917.15C962.734,917.101 963.368,917.052 964,916.995L964.362,916.962C964.893,916.914 965.421,916.862 965.953,916.81L966.519,916.753C967.07,916.696 967.62,916.639 968.17,916.576L968.633,916.521C969.184,916.458 969.731,916.393 970.281,916.322L970.929,916.24L972.258,916.063L972.865,915.979C973.437,915.9 974.006,915.815 974.578,915.729L975.303,915.617L976.502,915.427L977.21,915.31C977.749,915.222 978.286,915.13 978.823,915.034L979.787,914.857L980.61,914.705L981.61,914.517L982.438,914.351C983.002,914.239 983.566,914.125 984.13,914.008L984.852,913.855L985.933,913.618L986.47,913.498C987.246,913.324 988.022,913.144 988.796,912.959L988.99,912.913L990.286,912.597L990.567,912.526C991.92,912.189 993.268,911.832 994.611,911.461L994.701,911.434C1040.46,898.74 1078.53,867.582 1100.41,826.488C1076.36,839.3 1048.92,846.583 1019.77,846.583Z" style="fill:rgb(36,72,142);fill-rule:nonzero;"/>
    <path d="M1018.88,1101.49L878.49,1101.49L859.253,1449.61L884.338,1612.3L897.711,1699.03L911.154,1786.22L922.716,1861.2L974.649,1861.2L986.211,1786.22L999.654,1699.03L1012.5,1615.71L1038.11,1449.61L1018.88,1101.49Z" style="fill:rgb(170,51,36);fill-rule:nonzero;"/>
    <path d="M933.052,1856.63L964.313,1856.63L1002.51,1451.31L1015.41,1108.51L881.955,1108.51L894.857,1451.31L933.052,1856.63Z" style="fill:rgb(211,71,52);fill-rule:nonzero;"/>
</svg>
