<?xml version="1.0" encoding="UTF-8" standalone="no"?>
<!DOCTYPE svg PUBLIC "-//W3C//DTD SVG 1.1//EN" "http://www.w3.org/Graphics/SVG/1.1/DTD/svg11.dtd">
<svg width="100%" height="100%" viewBox="0 0 4000 4000" version="1.1" xmlns="http://www.w3.org/2000/svg" xmlns:xlink="http://www.w3.org/1999/xlink" xml:space="preserve" xmlns:serif="http://www.serif.com/" style="fill-rule:evenodd;clip-rule:evenodd;stroke-linejoin:round;stroke-miterlimit:2;">
    <g>
        <g>
            <g>
                <g>
                    <g>
                        <path d="M1528.82,2797.62C1537.91,2797.62 1546.38,2797.88 1554.19,2798.28C1552.31,2784.85 1549.79,2764.64 1547.67,2739.65L1536.76,2734.68C1449.82,2695 1399.55,2604.66 1411.65,2509.87L1421.51,2432.74C1406.93,2416.9 1395.09,2398.94 1386.31,2379.39C1339.94,2391.75 1300.21,2421.38 1265.54,2469.28C1221.11,2530.67 1203.64,2599.37 1203.51,2599.86C1196.62,2628.33 1172.34,2648.68 1143.1,2650.5C1141.72,2650.59 1140.35,2650.63 1138.98,2650.63C1111.58,2650.63 1086.63,2633.42 1076.91,2607.78C991.875,2383.34 994.756,2206.68 1085.47,2082.71C1173.06,1963.02 1317.31,1926.9 1412.62,1916.63C1436.65,1782.57 1469.03,1649.71 1508.97,1521.24C1562.59,1348.78 1630.13,1183.63 1709.72,1030.35C1765.49,922.94 1831.27,825.772 1905.24,741.541C1905.3,741.473 1905.39,741.368 1905.47,741.275C1905.5,741.243 1905.53,741.209 1905.56,741.177C1932.48,710.547 1960.57,681.614 1989.69,654.265C1326.53,683.215 797.767,1229.93 797.767,1900.21C797.767,2299.09 985.023,2654.22 1276.41,2882.53C1320.85,2843.94 1376.59,2817.78 1442.29,2805.46C1469.99,2800.26 1499.1,2797.62 1528.82,2797.62Z" style="fill:rgb(255,218,64);fill-rule:nonzero;"/>
                    </g>
                </g>
                <g>
                    <g>
                        <path d="M3006.65,1105.94C3005.34,1150.33 3001.64,1195.05 2995.47,1240.03L2995.41,1240.51L2995.24,1241.74C2979.97,1351.93 2949.8,1464.41 2905.55,1576.06C2841.92,1736.62 2761.41,1895.88 2666.27,2049.4C2595.39,2163.76 2516.24,2275.29 2430.72,2381.29C2485.39,2460.01 2552.62,2592.63 2519.61,2737.18C2485.4,2886.94 2353.85,3004.87 2128.58,3087.72C2121.22,3090.42 2113.51,3091.79 2105.68,3091.79C2085.1,3091.79 2065.37,3082.02 2052.88,3065.65C2035.15,3042.39 2034.63,3010.79 2051.56,2986.96C2052.92,2984.99 2092.56,2927.34 2109.61,2854.47C2123.07,2796.9 2119.43,2747.48 2098.39,2704.38C2079.7,2709.97 2060.23,2712.86 2040.73,2712.86C2038.85,2712.86 2036.94,2712.83 2035.03,2712.77L1983.25,2770.73C1942.05,2816.83 1883.21,2843.27 1821.82,2843.27C1790.56,2843.27 1760.15,2836.63 1731.45,2823.53L1720.49,2818.53C1700.24,2833.28 1683.36,2844.61 1671.99,2851.99C1692.41,2873.24 1717.76,2903.46 1739.86,2941.25C1774.45,3000.39 1791.32,3061.13 1790.45,3121.42C1872.63,3138.46 1957.77,3147.45 2045,3147.45C2733.83,3147.45 3292.23,2589.04 3292.23,1900.22C3292.23,1598.42 3185.03,1321.67 3006.65,1105.94Z" style="fill:rgb(255,218,64);fill-rule:nonzero;"/>
                    </g>
                </g>
            </g>
            <g>
                <g>
                    <g>
                        <g>
                            <path d="M1603.45,2873.83C1603.45,2873.83 1797.7,3029.4 1695.27,3233.6C1592.84,3437.8 1348.2,3405.62 1300.81,3509.46C1348.2,3405.62 1163.58,3241.9 1250.71,3030.72C1337.84,2819.54 1582.64,2864.34 1582.64,2864.34" style="fill:rgb(252,3,50);fill-rule:nonzero;"/>
                        </g>
                    </g>
                    <g>
                        <g>
                            <path d="M1570.7,2917.92C1528.71,2913.81 1407.27,2912.6 1360.09,3026.95C1324.36,3113.55 1354.07,3190.52 1385.51,3272.02C1389.13,3281.39 1392.76,3290.8 1396.28,3300.25C1405.73,3296.72 1415.21,3293.29 1424.67,3289.89C1506.84,3260.24 1584.44,3232.24 1626.44,3148.5C1681.76,3038.24 1601.86,2947.48 1570.7,2917.92Z" style="fill:rgb(239,175,48);fill-rule:nonzero;"/>
                        </g>
                    </g>
                    <g>
                        <g>
                            <path d="M1561.98,2937.09C1538.88,2934.82 1472.06,2934.16 1446.1,2997.08C1426.44,3044.72 1442.79,3087.07 1460.09,3131.91C1462.08,3137.07 1464.08,3142.25 1466.02,3147.45C1471.21,3145.5 1476.43,3143.62 1481.63,3141.74C1526.84,3125.43 1569.54,3110.03 1592.65,3063.95C1623.08,3003.29 1579.12,2953.35 1561.98,2937.09Z" style="fill:rgb(255,236,123);fill-rule:nonzero;"/>
                        </g>
                    </g>
                    <g>
                        <g>
                            <path d="M1300.8,3535.86C1297.13,3535.86 1293.41,3535.09 1289.86,3533.47C1280.14,3529.04 1274.41,3519.45 1274.42,3509.43C1274.42,3505.77 1275.18,3502.06 1276.81,3498.51C1292.04,3465.13 1272.87,3415.47 1250.68,3357.96C1215.47,3266.72 1171.65,3153.16 1226.32,3020.66C1265.52,2925.65 1342.75,2864.83 1449.67,2844.77C1528.41,2829.99 1595.24,2842.62 1598.05,2843.17C1602.15,2843.96 1606,2845.72 1609.29,2848.3C1611.54,2850.06 1664.89,2892.28 1705.34,2961.44C1760.26,3055.36 1764.94,3153.56 1718.86,3245.43C1654.59,3373.55 1540.1,3414.86 1448.11,3448.05C1390.12,3468.97 1340.05,3487.04 1324.81,3520.41C1320.38,3530.12 1310.81,3535.86 1300.8,3535.86ZM1527,2890.06C1452.03,2890.06 1328.56,2911.22 1275.11,3040.79C1228.47,3153.82 1266.43,3252.18 1299.92,3338.96C1313.88,3375.15 1326.85,3408.74 1332.39,3440.27C1359.83,3423.8 1393.7,3411.58 1430.19,3398.41C1517.69,3366.84 1616.87,3331.06 1671.69,3221.77C1754.91,3055.87 1610.4,2918.9 1581.59,2893.91C1571.82,2892.44 1552.13,2890.06 1527,2890.06Z" style="fill:rgb(0,0,114);fill-rule:nonzero;"/>
                        </g>
                    </g>
                    <g>
                        <g>
                            <path d="M1324.82,3520.42L1152.58,3847.23C1149.51,3852.99 1140.38,3849.14 1142.8,3842.77L1276.8,3498.51C1291.58,3464.73 1340.66,3486.94 1324.82,3520.42Z" style="fill:rgb(0,0,114);fill-rule:nonzero;"/>
                        </g>
                    </g>
                </g>
                <g>
                    <g>
                        <path d="M1496.83,1979.56C1496.83,1979.56 897.435,1946.68 1138.99,2584.26C1138.99,2584.26 1214.7,2268.7 1486.55,2310.05L1496.83,1979.56Z" style="fill:rgb(252,3,50);fill-rule:nonzero;"/>
                    </g>
                </g>
                <g opacity="0.6">
                    <g>
                        <path d="M1494.9,2041.44L1496.83,1979.56C1496.83,1979.56 897.435,1946.68 1138.99,2584.26C1138.99,2584.26 1139.29,2583 1139.92,2580.66C986.107,2085.21 1387.78,2043.81 1494.9,2041.44Z" style="fill:white;fill-rule:nonzero;"/>
                    </g>
                </g>
                <g>
                    <g>
                        <path d="M1138.98,2610.63C1128.08,2610.63 1118.22,2603.91 1114.31,2593.61C1034.38,2382.63 1035.54,2218.69 1117.75,2106.33C1238.77,1940.96 1487.74,1952.63 1498.28,1953.21C1512.58,1954 1523.65,1966.06 1523.2,1980.38L1512.92,2310.87C1512.69,2318.41 1509.24,2325.49 1503.44,2330.33C1497.64,2335.15 1490.05,2337.28 1482.58,2336.13C1380.91,2320.66 1296.99,2357.58 1233.14,2445.83C1183.45,2514.48 1164.83,2589.69 1164.64,2590.45C1161.91,2601.69 1152.18,2609.86 1140.63,2610.58C1140.08,2610.61 1139.53,2610.63 1138.98,2610.63ZM1469.61,2005.91C1406.46,2007.75 1243.31,2023.88 1160.19,2137.7C1098.25,2222.53 1091.36,2345.66 1139.5,2504.32C1151.3,2477.65 1167.61,2446.62 1189.39,2416.26C1258.62,2319.8 1352.03,2273.36 1461.07,2280.71L1469.61,2005.91Z" style="fill:rgb(0,0,114);fill-rule:nonzero;"/>
                    </g>
                </g>
                <g>
                    <g>
                        <path d="M2327.97,2358.85C2327.97,2358.85 2745.58,2790.08 2105.68,3025.4C2105.68,3025.4 2294.43,2761.43 2085.06,2583.18L2327.97,2358.85Z" style="fill:rgb(252,3,50);fill-rule:nonzero;"/>
                    </g>
                </g>
                <g opacity="0.3">
                    <g>
                        <path d="M2119.84,3003.06C2159.49,2935.81 2257.88,2730.29 2085.08,2583.2L2254.94,2426.31C2331.77,2527.26 2495.07,2808.09 2119.84,3003.06Z" style="fill:rgb(0,0,114);fill-rule:nonzero;"/>
                    </g>
                </g>
                <g>
                    <g>
                        <path d="M2105.68,3051.79C2097.62,3051.79 2089.79,3048.09 2084.69,3041.4C2077.67,3032.19 2077.48,3019.48 2084.21,3010.05C2084.64,3009.45 2129.25,2946.1 2148.55,2863.58C2173.37,2757.51 2146.25,2669.93 2067.95,2603.27C2062.21,2598.38 2058.83,2591.26 2058.68,2583.71C2058.53,2576.16 2061.61,2568.91 2067.16,2563.79L2310.07,2339.47C2320.6,2329.74 2336.96,2330.21 2346.93,2340.49C2354.27,2348.08 2526.24,2528.49 2480.61,2728.27C2449.62,2864 2326.54,2972.3 2114.78,3050.17C2111.81,3051.27 2108.73,3051.79 2105.68,3051.79ZM2123.92,2583.21C2200.9,2660.69 2227.05,2761.74 2199.55,2877.25C2190.9,2913.6 2178.14,2946.24 2165.73,2972.64C2317.26,2904.98 2405.76,2819.02 2429.16,2716.53C2460.61,2578.82 2365.94,2445.41 2325.94,2396.65L2123.92,2583.21Z" style="fill:rgb(0,0,114);fill-rule:nonzero;"/>
                    </g>
                </g>
                <g>
                    <g>
                        <g>
                            <path d="M1810.24,2393.22L2109.49,2529.78L1933.75,2726.49C1889.82,2775.65 1819,2790.51 1759.02,2763.13L1564.32,2674.28C1504.34,2646.91 1469.15,2583.68 1477.51,2518.28L1510.93,2256.63L1810.18,2393.2" style="fill:rgb(1,167,253);fill-rule:nonzero;"/>
                        </g>
                    </g>
                    <g opacity="0.3">
                        <g>
                            <path d="M1842.02,2407.72L1684.46,2584.06C1640.53,2633.23 1569.72,2648.08 1509.73,2620.71L1498.3,2615.49C1513.59,2640.65 1536.18,2661.44 1564.32,2674.28L1759.02,2763.14C1819,2790.51 1889.82,2775.66 1933.75,2726.49L2109.49,2529.79L1842.02,2407.72Z" style="fill:rgb(0,0,114);fill-rule:nonzero;"/>
                        </g>
                    </g>
                    <g>
                        <g>
                            <path d="M1821.83,2803.27C1796.99,2803.27 1771.87,2798.01 1748.06,2787.14L1553.36,2698.29C1482.46,2665.93 1441.46,2592.25 1451.33,2514.94L1484.75,2253.29C1485.81,2244.97 1490.77,2237.65 1498.1,2233.57C1505.42,2229.5 1514.25,2229.14 1521.88,2232.62L1821.14,2369.19C1821.25,2369.24 1821.34,2369.28 1821.44,2369.33L2120.45,2505.78C2128.08,2509.26 2133.6,2516.16 2135.32,2524.37C2137.05,2532.58 2134.76,2541.11 2129.18,2547.37L1953.42,2744.07C1918.93,2782.67 1870.94,2803.27 1821.83,2803.27ZM1532.56,2295.51L1503.69,2521.63C1496.75,2575.87 1525.53,2627.58 1575.28,2650.28L1769.98,2739.13C1819.72,2761.83 1877.63,2749.69 1914.07,2708.91L2065.95,2538.92L1799.28,2417.23C1799.18,2417.18 1799.08,2417.14 1798.98,2417.09L1532.56,2295.51Z" style="fill:rgb(0,0,114);fill-rule:nonzero;"/>
                        </g>
                    </g>
                </g>
                <g>
                    <g>
                        <g>
                            <path d="M2134.99,2608.12C2094.74,2646.94 2034.92,2657.26 1983.96,2634.01L1514.41,2419.73C1463.52,2396.5 1432.12,2344.55 1435.06,2288.71C1445.73,2084.99 1499.93,1578.52 1768.61,1060.95C1825.07,952.299 1888.01,861.77 1954.05,786.415C2204.67,500.016 2498.12,431.895 2635.78,415.902C2685.57,410.117 2734.61,432.497 2762.8,473.869C2840.99,588.362 2981.87,854.606 2929.68,1231.56C2916.03,1330.83 2888.86,1437.76 2843.79,1551.61C2628.95,2093.75 2281.81,2466.54 2134.99,2608.12Z" style="fill:white;fill-rule:nonzero;"/>
                        </g>
                    </g>
                    <g>
                        <g>
                            <path d="M2929.68,1231.56C2523.96,680.363 1954.06,786.414 1954.06,786.414C2204.67,500.015 2498.13,431.894 2635.78,415.901C2685.57,410.116 2734.61,432.496 2762.8,473.868C2840.99,588.362 2981.87,854.605 2929.68,1231.56Z" style="fill:rgb(252,3,50);fill-rule:nonzero;"/>
                        </g>
                    </g>
                    <g opacity="0.6">
                        <g>
                            <path d="M2753.58,461.969C2742.95,460.612 2732.17,460.461 2721.32,461.743C2583.65,477.726 2290.22,545.805 2039.55,832.219C1973.5,907.611 1910.63,998.157 1854.16,1106.8C1630.17,1538.27 1555.23,1961.97 1530.27,2209.03C1525.3,2258.41 1522.36,2300.63 1520.55,2334.56C1518.36,2376.4 1535.48,2416.05 1565.63,2443.12L1532.08,2427.82L1514.44,2419.75C1463.55,2396.53 1432.11,2344.58 1435.05,2288.72C1445.76,2085.01 1499.89,1578.53 1768.59,1060.96C1825.06,952.319 1888.01,861.773 1954.05,786.381C2204.65,500.042 2498.16,431.888 2635.75,415.905C2680.53,410.702 2724.63,428.269 2753.58,461.969Z" style="fill:white;fill-rule:nonzero;"/>
                        </g>
                    </g>
                    <g opacity="0.3">
                        <g>
                            <path d="M2851.22,1199.3C2837.57,1298.59 2810.43,1405.5 2765.35,1519.34C2550.48,2061.49 2203.37,2434.3 2056.59,2575.89C2023.56,2607.7 1977.35,2620.37 1933.7,2611.09L1565.63,2443.12C1535.48,2416.05 1518.36,2376.4 1520.55,2334.55C1522.36,2300.63 1525.3,2258.41 1530.27,2209.03L1806.43,2335.01C1857.4,2358.3 1917.26,2347.97 1957.52,2309.15C2034.19,2235.19 2165.53,2098.2 2304.02,1906.86C2443.72,1882.05 2565.26,1789.92 2625.34,1658.21C2675.4,1548.59 2676.08,1428.8 2636.8,1324C2646.91,1300.55 2656.71,1276.73 2666.28,1252.61C2711.37,1138.76 2738.51,1031.86 2752.15,932.566C2773.56,778.239 2762.56,642.458 2736.7,528.088C2811.11,666.884 2893.06,897.659 2851.22,1199.3Z" style="fill:rgb(0,0,114);fill-rule:nonzero;"/>
                        </g>
                    </g>
                    <g>
                        <g>
                            <path d="M2929.7,1258.07C2921.6,1258.07 2913.6,1254.35 2908.43,1247.32C2704.4,970.075 2457.54,866.603 2286.38,828.622C2100.15,787.299 1960.24,812.138 1958.85,812.394C1944.5,815.023 1930.76,805.561 1928.11,791.242C1925.47,776.923 1934.91,763.168 1949.22,760.505C1955.25,759.38 2099.22,733.513 2295.39,776.567C2476.09,816.225 2736.5,924.66 2950.93,1216.04C2959.57,1227.77 2957.06,1244.29 2945.32,1252.93C2940.62,1256.39 2935.13,1258.07 2929.7,1258.07Z" style="fill:rgb(0,0,114);fill-rule:nonzero;"/>
                        </g>
                    </g>
                    <g>
                        <g>
                            <path d="M2040.73,2672.86C2017.9,2672.86 1994.85,2668 1973.03,2658.04L1503.47,2443.76C1442.35,2415.87 1405.15,2354.45 1408.68,2287.28C1419.09,2089.73 1472.71,1573.6 1745.22,1048.78C2022.52,514.729 2458.29,409.951 2632.78,389.69C2692.47,382.747 2750.72,409.304 2784.63,458.987C2883.66,604.068 3090.06,1001.9 2868.36,1561.32C2650.49,2111.08 2295.75,2489.8 2153.34,2627.1C2122.21,2657.11 2081.83,2672.86 2040.73,2672.86ZM2651.51,441.379C2647.32,441.379 2643.1,441.621 2638.86,442.111C2472.75,461.401 2057.7,561.496 1792.06,1073.1C1524.3,1588.77 1471.61,2095.94 1461.39,2290.05C1459,2335.43 1484.12,2376.92 1525.38,2395.75L1994.94,2610.03C2036.19,2628.86 2084,2620.65 2116.71,2589.11C2256.64,2454.18 2605.22,2082.05 2819.3,1541.88C3031.68,1005.97 2835.32,626.859 2741.04,488.739C2720.62,458.83 2687.13,441.379 2651.51,441.379Z" style="fill:rgb(0,0,114);fill-rule:nonzero;"/>
                        </g>
                    </g>
                </g>
                <g>
                    <g>
                        <path d="M1912.4,2169.21C1912.4,2169.21 1997.1,2320.11 1923.9,2493.47C1850.69,2666.83 1622.33,2804.83 1622.33,2804.83C1622.33,2804.83 1576.94,2541.9 1659.92,2373C1742.91,2204.11 1912.4,2169.21 1912.4,2169.21Z" style="fill:rgb(252,3,50);fill-rule:nonzero;"/>
                    </g>
                </g>
                <g opacity="0.6">
                    <g>
                        <path d="M1690.08,2440.86C1765.83,2286.69 1913.57,2244.19 1938.79,2237.94C1926.95,2195.21 1912.4,2169.21 1912.4,2169.21C1912.4,2169.21 1742.91,2204.11 1659.93,2373C1576.94,2541.9 1622.34,2804.83 1622.34,2804.83C1622.34,2804.83 1630.14,2800.11 1643.27,2791.36C1636.45,2700.16 1636.13,2550.66 1690.08,2440.86Z" style="fill:white;fill-rule:nonzero;"/>
                    </g>
                </g>
                <g>
                    <g>
                        <path d="M1622.33,2831.22C1618.6,2831.22 1614.87,2830.43 1611.38,2828.84C1603.45,2825.22 1597.81,2817.91 1596.33,2809.32C1594.42,2798.24 1550.47,2535.95 1636.24,2361.37C1723.92,2182.92 1899.64,2144.89 1907.08,2143.36C1918.32,2141.03 1929.79,2146.28 1935.41,2156.29C1939.13,2162.91 2025.55,2320.57 1948.2,2503.73C1872.54,2682.92 1645.6,2821.6 1635.98,2827.41C1631.8,2829.94 1627.07,2831.22 1622.33,2831.22ZM1898.02,2200.73C1853.25,2215.53 1743.43,2262.89 1683.61,2384.64C1624.27,2505.41 1634.45,2680.93 1642.98,2759.58C1707.99,2714.49 1847.24,2607.17 1899.59,2483.2C1952.36,2358.24 1916.17,2244.24 1898.02,2200.73Z" style="fill:rgb(0,0,114);fill-rule:nonzero;"/>
                    </g>
                </g>
                <g>
                    <g>
                        <g>
                            <g>
                                <circle cx="2228.27" cy="1477.04" r="361.087" style="fill:rgb(1,167,253);"/>
                            </g>
                        </g>
                        <g opacity="0.6">
                            <g>
                                <path d="M1945.01,1394.98C2027.8,1213.56 2241.99,1133.6 2423.42,1216.39C2473.49,1239.24 2515.78,1272.13 2549.1,1311.55C2513.3,1242.02 2454.85,1183.52 2378.18,1148.54C2196.76,1065.74 1982.57,1145.7 1899.77,1327.13C1839.83,1458.48 1865.25,1606.98 1952.67,1710.38C1903.75,1615.37 1897.2,1499.74 1945.01,1394.98Z" style="fill:white;fill-rule:nonzero;"/>
                            </g>
                        </g>
                        <g>
                            <g>
                                <path d="M2228.08,1864.72C2173.32,1864.72 2118.72,1852.96 2067.41,1829.54C1973.25,1786.57 1901.46,1709.51 1865.27,1612.54C1829.07,1515.58 1832.8,1410.33 1875.77,1316.17C1964.47,1121.8 2194.76,1035.84 2389.14,1124.53C2583.49,1213.23 2669.45,1443.54 2580.77,1637.9C2537.81,1732.06 2460.75,1803.84 2363.78,1840.04C2319.66,1856.51 2273.81,1864.72 2228.08,1864.72ZM2228.77,1142.35C2101.66,1142.35 1979.91,1215.09 1923.78,1338.08C1886.66,1419.41 1883.44,1510.33 1914.71,1594.09C1945.98,1677.84 2007.98,1744.41 2089.32,1781.53C2170.65,1818.65 2261.56,1821.86 2345.33,1790.6C2429.08,1759.33 2495.65,1697.32 2532.76,1615.99C2609.38,1448.09 2535.12,1249.16 2367.23,1172.54C2322.32,1152.05 2275.18,1142.35 2228.77,1142.35Z" style="fill:rgb(0,0,114);fill-rule:nonzero;"/>
                            </g>
                        </g>
                    </g>
                    <g>
                        <g transform="matrix(0.7071,-0.7071,0.7071,0.7071,-391.777,2008.24)">
                            <g>
                                <circle cx="2228.27" cy="1477.04" r="217.842" style="fill:rgb(110,216,242);"/>
                            </g>
                        </g>
                        <g opacity="0.3">
                            <g>
                                <path d="M2075.33,1469.53C2125.2,1360.25 2254.67,1311.92 2363.95,1361.79C2392.98,1375.03 2417.66,1393.94 2437.39,1416.55C2420.31,1357.67 2378.73,1306.25 2318.71,1278.86C2209.43,1228.99 2079.96,1277.32 2030.09,1386.6C1993.47,1466.84 2009.86,1557.94 2064.39,1620.45C2050.38,1572.12 2052.85,1518.78 2075.33,1469.53Z" style="fill:rgb(0,0,114);fill-rule:nonzero;"/>
                            </g>
                        </g>
                        <g>
                            <g>
                                <path d="M2227.9,1721.25C2194.03,1721.25 2159.65,1714.18 2126.87,1699.22C2067.61,1672.18 2022.4,1623.59 1999.56,1562.41C1976.72,1501.24 1979.04,1434.9 2006.09,1375.64C2033.13,1316.38 2081.72,1271.16 2142.89,1248.33C2204.07,1225.48 2270.41,1227.81 2329.67,1254.85C2452.18,1310.76 2506.37,1455.92 2450.46,1578.43C2409.51,1668.17 2320.65,1721.25 2227.9,1721.25ZM2228.56,1285.59C2155.84,1285.59 2086.2,1327.2 2054.1,1397.55C2010.27,1493.59 2052.75,1607.38 2148.79,1651.21C2244.82,1695.04 2358.62,1652.56 2402.45,1556.52C2446.27,1460.48 2403.8,1346.69 2307.75,1302.86C2282.07,1291.14 2255.11,1285.59 2228.56,1285.59Z" style="fill:rgb(0,0,114);fill-rule:nonzero;"/>
                            </g>
                        </g>
                    </g>
                </g>
            </g>
            <g>
                <g>
                    <path d="M1197.83,1672.08C1222.66,1670.53 1249.76,1665.23 1277.38,1653.5C1249.86,1641.81 1222.86,1636.51 1198.11,1634.94C1196.53,1610.18 1191.23,1583.18 1179.55,1555.66C1167.82,1583.28 1162.52,1610.38 1160.97,1635.21C1113.97,1638.84 1081.71,1653.5 1081.71,1653.5C1081.71,1653.5 1114.09,1668.21 1161.24,1671.81C1164.83,1718.95 1179.55,1751.34 1179.55,1751.34C1179.55,1751.34 1194.2,1719.07 1197.83,1672.08Z" style="fill:white;fill-rule:nonzero;"/>
                </g>
            </g>
            <g>
                <g>
                    <path d="M2705.23,2507.84C2730.06,2506.29 2757.16,2500.99 2784.78,2489.26C2757.26,2477.57 2730.26,2472.27 2705.5,2470.7C2703.93,2445.94 2698.63,2418.94 2686.94,2391.42C2675.21,2419.04 2669.91,2446.14 2668.36,2470.97C2621.36,2474.6 2589.1,2489.26 2589.1,2489.26C2589.1,2489.26 2621.49,2503.97 2668.63,2507.57C2672.22,2554.71 2686.94,2587.1 2686.94,2587.1C2686.94,2587.1 2701.6,2554.84 2705.23,2507.84Z" style="fill:white;fill-rule:nonzero;"/>
                </g>
            </g>
            <g>
                <g>
                    <path d="M3048.65,1824.74C3064.49,1823.75 3081.78,1820.37 3099.41,1812.88C3081.85,1805.42 3064.62,1802.04 3048.82,1801.04C3047.82,1785.24 3044.44,1768.01 3036.98,1750.45C3029.49,1768.08 3026.11,1785.37 3025.12,1801.21C2995.13,1803.53 2974.55,1812.88 2974.55,1812.88C2974.55,1812.88 2995.21,1822.27 3025.3,1824.57C3027.59,1854.65 3036.98,1875.32 3036.98,1875.32C3036.98,1875.32 3046.33,1854.73 3048.65,1824.74Z" style="fill:white;fill-rule:nonzero;"/>
                </g>
            </g>
            <g>
                <g>
                    <path d="M1592.12,937.566C1607.97,936.578 1625.26,933.196 1642.89,925.711C1625.32,918.253 1608.1,914.87 1592.3,913.868C1591.3,898.072 1587.91,880.843 1580.46,863.278C1572.97,880.906 1569.59,898.198 1568.6,914.042C1538.61,916.356 1518.02,925.711 1518.02,925.711C1518.02,925.711 1538.69,935.102 1568.77,937.394C1571.07,967.48 1580.46,988.144 1580.46,988.144C1580.46,988.144 1589.81,967.557 1592.12,937.566Z" style="fill:white;fill-rule:nonzero;"/>
                </g>
            </g>
        </g>
    </g>
</svg>
